<svg width="28" height="28" viewBox="0 0 28 28" fill="none" xmlns="http://www.w3.org/2000/svg">
<path fill-rule="evenodd" clip-rule="evenodd" d="M4.05169 0.666992H8.56631C10.436 0.666992 11.951 2.19479 11.951 4.08028V8.63303C11.951 10.5185 10.436 12.0463 8.56631 12.0463H4.05169C2.182 12.0463 0.666992 10.5185 0.666992 8.63303V4.08028C0.666992 2.19479 2.182 0.666992 4.05169 0.666992ZM4.05169 15.9543H8.56631C10.436 15.9543 11.951 17.4821 11.951 19.3676V23.9203C11.951 25.8045 10.436 27.3336 8.56631 27.3336H4.05169C2.182 27.3336 0.666992 25.8045 0.666992 23.9203V19.3676C0.666992 17.4821 2.182 15.9543 4.05169 15.9543ZM23.949 15.9543H19.4344C17.5647 15.9543 16.0497 17.4821 16.0497 19.3676V23.9203C16.0497 25.8045 17.5647 27.3336 19.4344 27.3336H23.949C25.8187 27.3336 27.3337 25.8045 27.3337 23.9203V19.3676C27.3337 17.4821 25.8187 15.9543 23.949 15.9543Z" fill="black"/>
</svg>
