<svg width="38" height="92" viewBox="0 0 38 92" fill="none" xmlns="http://www.w3.org/2000/svg">
<path d="M37.701 88.4994C35.9006 88.1022 34.11 87.5233 32.2258 86.7298C32.2033 86.7192 32.1474 86.6561 32.1299 86.5994C31.9421 85.9599 31.8792 85.3157 31.937 84.6297C32.306 80.2503 29.6954 75.6358 25.7305 73.6575C25.6462 73.6147 25.5583 73.5777 25.457 73.5363L25.363 73.4974C25.2736 73.4593 25.1649 73.4751 25.0928 73.5329C25.0149 73.593 24.9762 73.6908 24.9921 73.7889L25.1006 74.4604C25.1969 75.0546 25.2912 75.6361 25.3816 76.2181L25.4044 76.3704C25.659 78.0243 25.9222 79.7347 26.4349 81.3779C26.8976 82.8604 27.6115 84.0302 28.6045 84.9265C26.5067 83.6908 24.5519 82.2058 22.7766 80.4979C22.7393 80.4621 22.6951 80.3671 22.6887 80.2887L22.6411 79.1166C22.6408 79.0749 22.6403 78.9643 22.6639 78.9096C23.5384 76.8745 23.7624 74.5838 23.3492 71.907C22.9508 69.3253 21.8474 66.9512 20.0692 64.8503C19.8611 64.6043 19.6775 64.4798 19.5234 64.4798C19.4858 64.4798 19.4519 64.4873 19.4252 64.5012C19.3434 64.5418 19.288 64.6205 19.2771 64.7113L19.2296 65.1202C19.1928 65.4237 19.1575 65.7216 19.1258 66.0201C19.071 66.546 19.0109 67.071 18.9505 67.5963L18.9419 67.6722C18.7916 68.9837 18.6358 70.34 18.5535 71.698C18.4578 73.2822 18.4862 75.1324 19.4235 76.844C19.4285 76.8526 19.4329 76.8617 19.438 76.8704C18.135 75.2428 16.9456 73.4912 15.8845 71.6352C15.7908 71.4701 15.7827 71.3253 15.8002 71.1152C15.8756 70.2266 16.289 69.5046 16.7245 68.857C17.5655 67.603 18.0747 66.1207 18.3754 64.0507C18.7958 61.1557 18.3713 58.2516 17.1143 55.4184C17.0798 55.3403 17.0394 55.2649 16.9963 55.1841L16.8981 54.999C16.8511 54.9086 16.7506 54.8491 16.6446 54.8539C16.5389 54.8594 16.4457 54.9264 16.4073 55.0237C16.1024 55.7919 15.8074 56.532 15.5145 57.2666L15.3272 57.736C14.7024 59.3039 14.0015 61.1343 13.5942 63.0229C13.3071 64.3556 13.2895 65.6419 13.5413 66.8664C12.5642 64.5432 11.761 62.0882 11.1458 59.5426C11.1389 59.5143 11.1367 59.4409 11.1976 59.2716C11.4853 58.4851 12.0092 57.7719 12.673 57.2635C14.1262 56.1502 14.9505 54.6026 15.5651 53.2357C16.8235 50.4403 17.1649 47.4706 16.6084 44.1562C16.6026 44.1215 16.592 44.087 16.5795 44.0495L16.5695 44.0195C16.5453 43.9453 16.4902 43.8852 16.4173 43.8538C16.3461 43.8241 16.2565 43.8296 16.2011 43.8569C16.1455 43.8772 16.0612 43.908 16.0064 43.9883C15.6914 44.4086 15.3718 44.8327 15.0518 45.2566L14.9981 45.328C14.1913 46.3983 13.3569 47.5045 12.555 48.6065C11.6261 49.8797 10.97 51.1173 10.5491 52.3903C10.346 53.0051 10.2132 53.5968 10.1506 54.1715C9.88328 52.1062 9.73165 49.9975 9.69854 47.8713C9.69075 47.3638 9.7553 46.9606 10.1022 46.5189C10.4695 46.0481 10.8125 45.7852 11.2855 45.6118C13.2289 44.9025 14.4756 43.4036 15.3445 42.177C16.7481 40.1929 17.5714 37.8841 17.8613 35.1186C17.8922 34.834 17.9097 34.5461 17.9278 34.2415L17.9322 34.1723C17.9408 34.0241 17.95 33.8699 17.9617 33.7065C17.9689 33.5981 17.9108 33.4964 17.8137 33.4472C17.7197 33.3999 17.5992 33.4138 17.5174 33.483L17.2867 33.6803C17.1999 33.7543 17.1257 33.8176 17.0486 33.8793C16.6783 34.1765 16.3066 34.4705 15.934 34.7654L15.8951 34.796C15.0774 35.443 14.2316 36.112 13.4239 36.8029C11.8567 38.1381 10.8476 39.4672 10.248 40.9861C10.149 41.2365 10.0622 41.4842 9.98761 41.7293C10.2341 39.3157 10.6345 36.9388 11.1842 34.6328C11.251 34.3507 11.2883 34.2679 11.4255 34.2229C11.5117 34.1937 11.5921 34.1375 11.6508 34.0681C12.0495 33.6153 12.5745 33.5436 13.0831 33.5333C14.7803 33.4936 16.1263 32.6478 17.2189 31.8257C19.8979 29.8101 21.7425 24.6961 21.7425 24.5227C21.7425 24.4324 21.6974 24.3482 21.6209 24.2973C21.5455 24.2476 21.4437 24.2406 21.3669 24.2748C20.8088 24.5113 20.2506 24.7417 19.6728 24.9805C18.4013 25.5072 17.0867 26.0514 15.8241 26.6464C14.5535 27.247 13.5494 28.0502 12.8316 29.0386C13.5157 27.0967 14.3089 25.1928 15.197 23.3632C15.2991 23.1658 15.7788 22.9563 16.4666 22.9563C16.6902 22.9563 16.907 22.9802 17.0942 23.0252C18.7101 23.4121 20.3124 23.1775 22.0858 22.2923C23.9001 21.3862 25.4052 19.9049 26.6873 17.7623C26.7118 17.7209 26.7599 17.5944 26.7858 17.5235C26.8183 17.4368 26.8053 17.3412 26.7513 17.2687C26.7012 17.1997 26.6211 17.1586 26.519 17.1586C26.5181 17.1586 26.5176 17.1586 26.5167 17.1586L25.8763 17.1989C25.4837 17.2236 25.1025 17.2478 24.7214 17.2673L24.3143 17.2878C23.0991 17.349 21.8421 17.4118 20.6123 17.7045C19.2098 18.0413 18.1801 18.5585 17.3905 19.3256C18.3251 17.7717 19.3258 16.2931 20.38 14.9082C20.4084 14.8715 20.5444 14.8153 20.656 14.7967C20.7117 14.7837 20.9142 14.7411 21.1835 14.7411C21.5408 14.7411 21.8535 14.8137 22.1186 14.9593C23.8032 15.7823 25.6952 15.8434 27.7493 15.1386C29.4342 14.5635 30.8612 13.4954 32.112 11.8742C32.1527 11.822 32.1894 11.765 32.2228 11.705C32.2609 11.6358 32.2634 11.5596 32.23 11.4901C32.1332 11.2873 31.7142 11.1919 31.5378 11.1602C31.1049 11.0846 30.6144 10.9985 30.1281 10.9326C29.9052 10.9015 29.6821 10.869 29.4584 10.8359L29.4297 10.8314C28.6718 10.7197 27.8884 10.6041 27.0991 10.5643C25.6568 10.4907 24.3761 10.7847 23.328 11.4357C24.0328 10.6864 24.7528 9.9754 25.484 9.30753C25.7152 9.09686 25.9767 8.88452 26.3331 8.61798C26.3607 8.59685 26.4308 8.57212 26.5167 8.56712C29.0427 8.46845 31.1447 7.35449 32.942 5.16215C33.921 3.96871 34.6717 2.46342 35.2373 0.560132L35.2568 0.494817C35.3172 0.294705 35.3505 0.184643 35.2117 0.055682C35.1046 -0.0438182 34.916 -0.0143564 34.4257 0.179641C33.9806 0.35057 33.5326 0.516497 33.0727 0.68687C32.1488 1.02901 31.1931 1.38281 30.2708 1.78248C28.7294 2.45175 27.4986 3.4662 26.613 4.79723C25.9386 5.81002 25.6721 6.82753 25.7975 7.90258C25.7967 7.91453 25.7861 7.94315 25.7845 7.94649C24.1755 9.33421 22.6375 10.8965 21.0583 12.7559C22.1114 11.1475 22.7978 9.29558 23.1422 7.14882C23.4894 4.98455 23.5114 3.0582 23.2098 1.25997C23.1906 1.1474 23.1647 1.03484 23.1316 0.89393L23.0824 0.676863C23.0601 0.583756 22.99 0.508436 22.8979 0.479531C22.8058 0.452293 22.7026 0.476473 22.6339 0.541788C22.5237 0.645457 22.4158 0.74329 22.3103 0.838343L22.236 0.905325C21.9662 1.14824 21.7113 1.37753 21.4807 1.63685C19.2396 4.16243 17.9325 6.83003 17.4848 9.79225C17.2809 11.1311 17.3655 12.2709 17.7436 13.2759C17.8688 13.6088 18.0641 13.9062 18.2586 14.2014C18.3476 14.3362 18.4366 14.4715 18.5182 14.6105C18.5783 14.7103 18.5833 14.7361 18.583 14.7314C18.546 15.1275 18.4928 15.5688 18.4211 16.0986C18.418 16.1052 18.408 16.1208 18.376 16.163L18.3501 16.1989C17.1245 17.9007 15.9939 19.6947 14.9764 21.5516C15.3765 20.1647 15.695 18.4093 15.6725 16.3695C15.6452 13.9229 15.0813 11.7408 13.9478 9.69775C13.903 9.61826 13.8218 9.56657 13.708 9.55878C13.6254 9.55878 13.5458 9.59964 13.4938 9.6694C13.4598 9.71665 13.4253 9.76112 13.3925 9.80336C13.3193 9.89786 13.2509 9.98736 13.1897 10.083C12.2871 11.4968 11.803 13.0557 11.4817 14.2561C10.8943 16.4576 10.6245 18.2959 10.6323 20.0416C10.6367 21.5255 10.9074 22.6661 11.4844 23.6314C11.6639 23.9318 11.8898 24.1948 12.1168 24.4593C12.2373 24.5997 12.3611 24.744 12.4732 24.8918C12.5517 24.9946 12.5895 25.0994 12.5918 25.1578C12.6065 25.5097 12.5987 25.8674 12.5912 26.2131L12.5859 26.4521C12.5851 26.4933 12.5756 26.5405 12.5614 26.5766C11.8369 28.3301 11.2001 30.1525 10.657 32.0241C10.7369 31.3868 10.7819 30.7698 10.7933 30.1678C10.859 26.7509 9.80983 23.6995 7.6742 21.0972L7.22905 20.5555C7.17758 20.4918 7.10134 20.4557 7.0201 20.4557L6.97559 20.4596C6.88044 20.4755 6.80031 20.5413 6.7672 20.6311C6.72658 20.7392 6.68679 20.8412 6.64812 20.9399C6.57356 21.1305 6.50317 21.3112 6.44363 21.4949C5.9854 22.9288 5.76059 24.4952 5.71497 26.573L5.71413 26.6136C5.67991 28.1253 5.63289 30.1962 6.25444 32.1778C6.86625 34.1287 7.94519 35.1145 8.15441 35.2915L8.17667 35.3115C8.74619 35.8193 9.11706 36.2837 9.19385 36.5853C9.22473 36.707 9.25617 36.8291 9.29289 36.9497C9.45537 37.4864 9.35382 37.9978 9.2442 38.55C9.18967 38.8288 9.13292 39.1167 9.11316 39.4122C9.0347 40.5945 8.93844 41.7968 8.84523 42.9594L8.83689 43.067C8.81296 43.3635 8.78903 43.6601 8.76539 43.9567C8.52778 41.2963 7.64582 38.878 6.1284 36.7393C5.19914 35.4308 4.09127 34.3113 2.83482 33.411C2.78057 33.3721 2.72353 33.3374 2.6473 33.2921C2.6103 33.2707 2.56745 33.2451 2.51542 33.2126C2.43696 33.1656 2.33625 33.1614 2.25528 33.2009C2.17237 33.2412 2.11534 33.3232 2.10588 33.416C2.08891 33.5842 2.06915 33.747 2.04829 33.916C2.00628 34.2621 1.96649 34.5889 1.96482 34.9247C1.94618 38.4049 2.68319 41.6662 4.15609 44.6167C4.56647 45.44 5.10872 46.1521 5.76838 46.734C6.42248 47.308 7.12833 47.6465 7.92488 47.7682C7.94241 47.7713 7.98414 47.7966 7.99054 47.8016C8.03366 47.888 8.07846 47.9747 8.12325 48.0617C8.28239 48.3688 8.44682 48.6865 8.52862 49.005C8.59678 49.2744 8.59678 49.5687 8.59678 49.8805C8.59678 49.9948 8.59678 50.1098 8.6004 50.2227C8.67691 52.9186 8.77735 53.8575 9.20915 56.2663C8.94567 55.5501 8.61487 54.8319 8.1878 54.141C6.45837 51.3447 4.26126 49.4467 1.47098 48.3391C1.29347 48.2677 1.11541 48.2163 0.908972 48.1562L0.867795 48.144C0.784051 48.1195 0.695298 48.0934 0.600424 48.0645C0.514732 48.0364 0.417077 48.0556 0.347243 48.1134C0.277688 48.171 0.241241 48.2591 0.250422 48.3508C0.27101 48.542 0.2852 48.7279 0.298276 48.9094C0.326933 49.3074 0.35392 49.6832 0.450463 50.0551C1.35079 53.529 2.84094 56.2958 5.00578 58.514C5.93142 59.4623 6.90687 60.0059 7.98776 60.1763C8.26041 60.2188 8.59372 60.2241 9.15796 60.1891L9.32044 60.1794C9.3452 60.178 9.3669 60.1766 9.38665 60.1766C9.43117 60.1766 9.43479 60.1766 9.46567 60.2222L10.2216 61.2591C10.2313 61.2727 10.2455 61.3219 10.2553 61.3558L10.2664 61.3931C11.051 64.0501 12.0245 66.6093 13.1724 69.0382C12.6558 68.3259 12.0896 67.6755 11.4586 67.0638C8.55672 64.2511 3.59548 64.1696 3.03931 64.1696L2.97004 64.1702L2.92635 64.1783C2.79003 64.2266 2.7163 64.3723 2.75831 64.5093C2.79698 64.6385 2.83315 64.7691 2.87461 64.9226C2.9539 65.2108 3.03625 65.5084 3.15171 65.7964C3.70148 67.1688 4.59262 68.489 5.95674 69.9526C6.89407 70.9559 7.95075 71.9735 9.32489 72.6169C10.8298 73.3228 12.1886 73.4951 13.5399 73.1494C13.7698 73.0891 14.0341 73.0126 14.2614 72.8653C14.4233 72.7617 14.4675 72.765 14.6267 72.8834C14.8153 73.0235 15.0159 73.1411 15.2107 73.255C15.3183 73.3181 15.4268 73.3817 15.5281 73.4457C15.5442 73.4593 15.5787 73.5157 15.5915 73.5366C16.804 75.5121 18.1398 77.3481 19.5821 79.023C18.8019 78.456 18.0009 78.0457 17.1501 77.7725C14.5502 76.9357 11.825 77.0421 9.12596 78.0847C8.7231 78.2406 8.28156 78.4768 8.25207 78.4935C8.1903 78.5341 8.14773 78.5997 8.13438 78.675C8.12269 78.7489 8.14189 78.8245 8.18696 78.8823C8.27126 78.9918 8.35278 79.1019 8.43347 79.2111L8.45127 79.235C8.63351 79.4829 8.83995 79.7634 9.07143 80.0118C10.1139 81.1283 11.3996 81.8768 12.6338 82.5194C14.3309 83.399 16.0665 83.8729 17.7926 83.9285C17.8738 83.9313 17.955 83.9329 18.036 83.9329C19.6238 83.9329 20.8633 83.4101 21.8187 82.3409C21.8304 82.3326 21.8718 82.3167 21.8946 82.3165C22.2597 82.3426 22.6066 82.3957 22.8659 82.4388C22.9068 82.446 22.9572 82.4704 22.9886 82.4988C24.5848 83.9104 26.2752 85.1494 28.0411 86.2039C27.7735 86.1247 27.4977 86.0558 27.2156 86.0005C25.3285 85.6381 23.4026 85.8654 21.2878 86.7048C19.8611 87.2729 18.5343 88.1075 17.2314 89.2562C17.124 89.3504 17.109 89.5124 17.1974 89.6247C17.6585 90.2109 18.2583 90.5391 18.7844 90.7826C20.0676 91.3782 21.516 91.7595 23.214 91.9491C23.219 91.9494 23.7646 91.9966 24.5297 91.9966C25.082 91.9966 25.5958 91.9719 26.0563 91.9232C26.4964 91.8771 26.9355 91.8018 27.3614 91.6995C29.3179 91.2237 30.6436 90.2454 31.4031 88.7265C31.4168 88.7134 31.4752 88.6795 31.5492 88.6614C31.9023 88.5739 32.22 88.5122 32.5221 88.4719C32.5934 88.4605 32.6821 88.4796 32.794 88.5247C34.145 89.0447 35.5748 89.478 37.0407 89.812C37.0613 89.8171 37.0827 89.8196 37.1042 89.8196C37.2027 89.8196 37.2934 89.7654 37.3412 89.677C37.4812 89.4168 37.6517 89.1673 37.8479 88.9352C37.9093 88.8621 37.9277 88.7648 37.8974 88.6748C37.8684 88.5875 37.795 88.5213 37.701 88.4994Z" fill="#1C1D28"/>
</svg>
