<svg width="39" height="92" viewBox="0 0 39 92" fill="none" xmlns="http://www.w3.org/2000/svg">
<path d="M38.1524 48.1146C38.0822 48.0568 37.9804 48.0384 37.9011 48.0651C37.8043 48.0948 37.7156 48.1207 37.6318 48.1451L37.5909 48.1571C37.3845 48.2174 37.2061 48.2691 37.0295 48.34C34.2383 49.4478 32.041 51.3458 30.3115 54.1421C29.8845 54.833 29.5537 55.5512 29.2902 56.2675C29.7223 53.8583 29.8224 52.9198 29.8989 50.2241C29.9025 50.111 29.9025 49.9959 29.9025 49.8817C29.9025 49.5698 29.9025 49.2752 29.9707 49.0065C30.0525 48.6879 30.2169 48.3703 30.3761 48.0629C30.4209 47.9759 30.4657 47.8889 30.5027 47.8124C30.5155 47.7974 30.5569 47.7721 30.5731 47.7696C31.3713 47.6479 32.0771 47.3094 32.7315 46.7349C33.3909 46.1532 33.9331 45.4411 34.3435 44.6179C35.8164 41.6673 36.5534 38.4061 36.5348 34.9258C36.5331 34.59 36.4936 34.2632 36.4502 33.9077C36.4305 33.7485 36.4104 33.5856 36.3937 33.4169C36.3843 33.3243 36.3272 33.2421 36.2446 33.202C36.1631 33.1626 36.0646 33.1654 35.9822 33.2151C35.9324 33.2462 35.8899 33.2715 35.8512 33.294C35.7764 33.3385 35.7193 33.3733 35.6653 33.4122C34.4089 34.3118 33.3007 35.4319 32.3712 36.7404C30.8543 38.8791 29.9721 41.2974 29.7345 43.9578C29.7109 43.6612 29.6869 43.3647 29.663 43.0681L29.6546 42.9606C29.5614 41.798 29.4652 40.5956 29.3867 39.4133C29.367 39.114 29.3094 38.8227 29.2537 38.5409C29.1463 37.9992 29.0448 37.4875 29.2073 36.9514C29.2443 36.8302 29.2754 36.7082 29.3066 36.5864C29.3834 36.2849 29.7543 35.8205 30.3238 35.3127L30.3452 35.2935C30.5553 35.1156 31.6342 34.1295 32.2463 32.179C32.8675 30.1973 32.8205 28.1267 32.7863 26.6147L32.7855 26.5744C32.7398 24.4961 32.515 22.9299 32.0565 21.4955C31.9973 21.3121 31.9269 21.1311 31.8523 20.941C31.8137 20.8421 31.7741 20.7398 31.7335 20.6328C31.7001 20.5422 31.62 20.4763 31.5262 20.4607L31.4803 20.4566C31.3991 20.4566 31.3231 20.493 31.2717 20.5558L30.8262 21.098C28.6906 23.7001 27.6414 26.7518 27.7071 30.1687C27.7185 30.7704 27.7636 31.3877 27.8434 32.025C27.3006 30.1537 26.6641 28.3321 25.9401 26.5797C25.9251 26.5414 25.9154 26.4938 25.9142 26.4535L25.9092 26.214C25.9017 25.8682 25.8939 25.5105 25.9087 25.1587C25.9109 25.1003 25.9487 24.9955 26.0275 24.8924C26.1393 24.7448 26.2634 24.6006 26.392 24.4505C26.6109 24.1959 26.8371 23.933 27.0163 23.6328C27.5933 22.6673 27.8643 21.5266 27.8687 20.0427C27.8765 18.2959 27.6069 16.4577 27.0193 14.2573C26.6983 13.0569 26.2136 11.4974 25.3111 10.0835C25.2498 9.98849 25.1814 9.899 25.1085 9.80422C25.0757 9.76225 25.0412 9.71751 25.0061 9.66943C24.9549 9.60078 24.8843 9.56075 24.7702 9.56075C24.6792 9.56742 24.598 9.61912 24.5526 9.69944C23.4197 11.742 22.8555 13.924 22.8288 16.3704C22.806 18.4102 23.1248 20.1653 23.5246 21.5525C22.5071 19.6956 21.3765 17.9015 20.1509 16.1997L20.1228 16.1611C20.095 16.1242 20.0833 16.1061 20.0852 16.1189C20.0082 15.5683 19.9547 15.1278 19.9177 14.7442C19.9186 14.7384 19.9258 14.7061 19.9831 14.6105C20.0641 14.4727 20.1528 14.3376 20.2472 14.1947C20.4363 13.9074 20.6317 13.61 20.7569 13.277C21.1347 12.272 21.2195 11.1322 21.0156 9.79366C20.5679 6.83117 19.2606 4.16356 17.0198 1.63798C16.7891 1.37867 16.5343 1.14938 16.2647 0.907018L16.1901 0.839481C16.0847 0.744149 15.9765 0.646595 15.8671 0.543482C15.7976 0.477334 15.698 0.452598 15.6014 0.480947C15.5102 0.509852 15.4398 0.585449 15.4181 0.679391L15.3691 0.893956C15.3357 1.03626 15.3098 1.14854 15.2906 1.26138C14.989 3.05961 15.011 4.98569 15.3582 7.15024C15.7027 9.29699 16.3891 11.1486 17.4421 12.757C15.8629 10.8982 14.3269 9.33729 12.7215 7.95402C12.7143 7.94457 12.7037 7.91594 12.7029 7.90872C12.8284 6.82895 12.5618 5.81171 11.8874 4.79892C11.0019 3.4679 9.77129 2.45344 8.22994 1.78418C7.30764 1.38451 6.35194 1.0307 5.41629 0.684116C4.96807 0.517912 4.51985 0.352264 4.05828 0.174664C3.59449 -0.00960549 3.39612 -0.0424017 3.28845 0.0570984C3.14989 0.18606 3.18328 0.296122 3.24366 0.496234L3.26313 0.561547C3.82875 2.46483 4.57939 3.97012 5.55845 5.16329C7.35576 7.35591 9.45773 8.46986 11.9812 8.56825C12.0697 8.57353 12.1398 8.59799 12.1684 8.62023C12.5237 8.88593 12.7853 9.09855 13.0165 9.30922C13.7476 9.97682 14.4677 10.6881 15.1721 11.4371C14.1243 10.7867 12.8437 10.4932 11.4014 10.566C10.6121 10.6058 9.8286 10.7214 9.071 10.8331L9.04206 10.8376C8.81809 10.8704 8.59524 10.9029 8.37294 10.9343C7.88605 11.0002 7.39527 11.0863 6.9618 11.1619C6.78625 11.1933 6.36697 11.2887 6.27043 11.4918C6.23704 11.5613 6.23982 11.6375 6.27766 11.7067C6.31105 11.767 6.34777 11.8237 6.38784 11.8754C7.639 13.4971 9.06627 14.5652 10.7512 15.1403C12.8056 15.8451 14.6925 15.787 16.3879 14.9579C16.6472 14.8154 16.96 14.7431 17.3172 14.7431C17.5868 14.7431 17.7891 14.7856 17.8561 14.8009C17.9566 14.8176 18.0929 14.8737 18.1207 14.9099C19.1752 16.2948 20.1759 17.774 21.1105 19.3279C20.3209 18.5608 19.2912 18.0436 17.8884 17.7067C16.6589 17.414 15.4019 17.3512 14.1867 17.2901L13.7796 17.2695C13.3985 17.2501 13.0173 17.2259 12.6247 17.2011L11.9665 17.1606C11.8813 17.1606 11.8004 17.2017 11.7508 17.2701C11.696 17.3437 11.6829 17.4393 11.7152 17.5252C11.7416 17.5969 11.7898 17.7234 11.8145 17.7656C13.0963 19.9074 14.6015 21.3888 16.4155 22.2948C18.1889 23.1798 19.7911 23.4138 21.4073 23.0277C21.5943 22.9827 21.811 22.9588 22.035 22.9588C22.7225 22.9588 23.2019 23.1684 23.3026 23.3624C24.1918 25.1948 24.9853 27.0989 25.6697 29.0411C24.9519 28.0525 23.9481 27.2495 22.6771 26.6489C21.4146 26.0536 20.1 25.5094 18.8065 24.9738C18.2506 24.7443 17.6925 24.5138 17.1369 24.2782C17.0543 24.242 16.9566 24.2495 16.8796 24.3004C16.8039 24.3507 16.7588 24.4346 16.7588 24.525C16.7588 24.6984 18.6034 29.8126 21.2824 31.8279C22.3753 32.6501 23.7213 33.4958 25.4187 33.5356C25.9268 33.5458 26.452 33.6176 26.8488 34.0681C26.9094 34.1398 26.9898 34.1957 27.0775 34.2254C27.213 34.2699 27.2503 34.3527 27.317 34.6351C27.8668 36.9408 28.2672 39.3174 28.5137 41.7307C28.4391 41.4858 28.3526 41.2385 28.2533 40.9881C27.6537 39.4692 26.6446 38.1401 25.0776 36.8052C24.27 36.1142 23.4242 35.4452 22.6062 34.7979L22.5672 34.7674C22.1947 34.4725 21.823 34.1787 21.4524 33.8813C21.3759 33.8199 21.3013 33.7565 21.2148 33.6826L20.9836 33.4847C20.9026 33.4163 20.7822 33.4022 20.6876 33.4494C20.5905 33.4986 20.5323 33.6003 20.5398 33.709C20.5513 33.8721 20.5604 34.0264 20.5691 34.1745L20.5735 34.2437C20.5919 34.5486 20.6091 34.8363 20.64 35.1203C20.9299 37.8861 21.7532 40.1951 23.1568 42.1793C24.0257 43.4058 25.2721 44.905 27.2158 45.614C27.6887 45.7874 28.0318 46.0501 28.3993 46.5214C28.746 46.9628 28.8105 47.3661 28.8027 47.8736C28.7696 49.9995 28.618 52.1085 28.3506 54.1738C28.288 53.599 28.1556 53.0073 27.9522 52.3925C27.5313 51.1196 26.8752 49.8819 25.9462 48.609C25.1444 47.5067 24.31 46.4005 23.5032 45.3302L23.4495 45.2588C23.1295 44.8349 22.8098 44.4105 22.4985 43.9953C22.4401 43.91 22.3558 43.8794 22.3071 43.8625C22.2381 43.8288 22.1557 43.8255 22.0826 43.8566C22.0108 43.8872 21.9557 43.9475 21.9315 44.0214L21.922 44.0503C21.9087 44.0893 21.8981 44.1237 21.8926 44.1582C21.3361 47.4728 21.6775 50.4425 22.9359 53.238C23.5505 54.6049 24.3748 56.1524 25.8283 57.2658C26.4918 57.7741 27.0157 58.4873 27.3034 59.2736C27.3643 59.4428 27.3621 59.5162 27.3552 59.5446C26.74 62.0899 25.9365 64.5449 24.9597 66.8684C25.2112 65.6438 25.1939 64.3575 24.9068 63.0249C24.4992 61.136 23.7986 59.3055 23.1738 57.738L22.9865 57.2686C22.6936 56.534 22.3986 55.7936 22.094 55.0262C22.0553 54.9281 21.9621 54.8611 21.8377 54.855C21.7398 54.855 21.6497 54.9109 21.6029 55.0015L21.5047 55.186C21.4616 55.2669 21.4212 55.3422 21.3868 55.42C20.1297 58.2533 19.7052 61.1577 20.1256 64.0527C20.426 66.1227 20.9352 67.6049 21.7765 68.859C22.212 69.5071 22.6257 70.2292 22.7008 71.1172C22.7186 71.3273 22.7102 71.4721 22.6165 71.6369C21.5553 73.4932 20.3657 75.245 19.0628 76.8726C19.0678 76.8637 19.0725 76.8548 19.0775 76.8459C20.0148 75.1347 20.0432 73.2845 19.9475 71.7C19.8649 70.3417 19.7091 68.9854 19.5591 67.6741L19.5505 67.5982C19.4901 67.073 19.43 66.5479 19.3752 66.0218C19.3435 65.7236 19.3082 65.4254 19.2717 65.1227L19.2236 64.713C19.213 64.6224 19.1576 64.544 19.0781 64.5046C18.9301 64.4273 18.6905 64.5465 18.4318 64.8523C16.6536 66.9532 15.5502 69.3273 15.1518 71.909C14.7386 74.5858 14.9626 76.8765 15.8373 78.9121C15.8607 78.9663 15.8602 79.0769 15.8599 79.1139L15.8129 80.2851C15.8059 80.3693 15.7614 80.4643 15.7247 80.4996C13.9491 82.2078 11.9943 83.6928 9.89648 84.9288C10.8895 84.0322 11.6034 82.8624 12.0661 81.3799C12.5788 79.7367 12.842 78.0266 13.0971 76.3684L13.1194 76.2209C13.2098 75.6383 13.3041 75.0569 13.4004 74.4626L13.5092 73.7909C13.5248 73.6931 13.4861 73.5952 13.4101 73.5366C13.3347 73.4765 13.2257 73.4621 13.1389 73.4993L13.044 73.5385C12.9427 73.5799 12.8545 73.6169 12.7713 73.6594C8.80558 75.638 6.19503 80.2528 6.56395 84.632C6.62182 85.3179 6.55894 85.9622 6.37142 86.6003C6.35389 86.6584 6.29769 86.7215 6.27488 86.732C4.39132 87.5255 2.60041 88.1045 0.798371 88.5019C0.705723 88.5233 0.632268 88.5894 0.60222 88.6787C0.571894 88.7684 0.590261 88.866 0.652026 88.9394C0.847894 89.1712 1.01844 89.4205 1.15866 89.6814C1.21625 89.7882 1.35342 89.8429 1.45608 89.8162C2.92426 89.4816 4.35403 89.0483 5.70702 88.5275C5.81636 88.4836 5.89983 88.4627 5.97801 88.4755C6.27905 88.5155 6.59706 88.5772 6.95012 88.6648C7.02302 88.6826 7.08339 88.7162 7.0845 88.7131C7.85573 90.249 9.18118 91.2273 11.1379 91.7034C11.5636 91.8054 12.0026 91.8807 12.4428 91.9269C12.9035 91.9755 13.4174 92.0002 13.9696 92.0002C14.7347 92.0002 15.2803 91.953 15.287 91.9524C16.9831 91.7629 18.4315 91.3816 19.7144 90.7865C20.2408 90.5428 20.8406 90.2145 21.3016 89.6284C21.3898 89.5161 21.3751 89.354 21.268 89.2598C19.9648 88.1111 18.6379 87.2765 17.2109 86.7084C15.0967 85.869 13.1709 85.6417 11.2831 86.0044C11.001 86.0591 10.7256 86.1281 10.4579 86.2073C12.2238 85.1528 13.9146 83.9135 15.5113 82.5016C15.5419 82.4738 15.5922 82.4493 15.6315 82.4424C15.8927 82.399 16.2397 82.3457 16.5947 82.3201C16.6275 82.3201 16.6692 82.3359 16.674 82.3376C17.636 83.4132 18.8755 83.936 20.4633 83.936C20.5443 83.936 20.6255 83.9343 20.7065 83.9316C22.4329 83.876 24.1684 83.4021 25.8658 82.5224C27.0995 81.8796 28.3854 81.1311 29.4282 80.0149C29.6594 79.7667 29.8658 79.486 30.0481 79.2384L30.0659 79.2142C30.1465 79.105 30.2281 78.9949 30.3118 78.8862C30.3574 78.8276 30.3766 78.752 30.3647 78.6758C30.3519 78.6025 30.3093 78.5372 30.2367 78.4899C30.2183 78.4799 29.7768 78.2434 29.3737 78.0875C26.6743 77.0455 23.9492 76.9388 21.3495 77.7756C20.4984 78.0488 19.6974 78.4591 18.9175 79.026C20.3598 77.3512 21.6953 75.5152 22.9078 73.5396C22.9209 73.5188 22.9554 73.4624 22.9665 73.4521C23.0725 73.3845 23.181 73.3206 23.2892 73.2575C23.4831 73.1439 23.684 73.0263 23.8727 72.8862C24.0318 72.7675 24.0766 72.7645 24.2374 72.8679C24.465 73.0155 24.7296 73.0922 24.9602 73.1525C26.3096 73.4977 27.6698 73.3256 29.1744 72.6199C30.5489 71.9763 31.6055 70.9587 32.5431 69.9554C33.907 68.4918 34.7981 67.1713 35.3479 65.7995C35.4634 65.5115 35.5457 65.2139 35.6314 64.9026C35.6667 64.7719 35.7029 64.6413 35.7413 64.5129C35.7833 64.3751 35.7099 64.2291 35.5735 64.1811L35.4606 64.1724C34.9044 64.1724 29.9432 64.2539 27.0413 67.0666C26.41 67.6786 25.8441 68.3289 25.3275 69.041C26.4754 66.6124 27.4489 64.0529 28.2335 61.3962L28.2449 61.3573C28.2544 61.3247 28.2686 61.2755 28.278 61.2622L29.037 60.2211C29.0654 60.1794 29.0687 60.1794 29.1132 60.1794C29.133 60.1794 29.1547 60.1808 29.1794 60.1821L29.3417 60.1919C29.9064 60.2269 30.2389 60.2219 30.5124 60.1791C31.593 60.0087 32.5685 59.4651 33.4941 58.5168C35.6589 56.2989 37.1491 53.5318 38.0494 50.0581C38.146 49.686 38.173 49.3102 38.2019 48.9117C38.2147 48.731 38.2289 48.5448 38.2495 48.3525C38.2581 48.2602 38.2219 48.1721 38.1524 48.1146Z" fill="#1C1D28"/>
</svg>
