<svg width="18" height="17" viewBox="0 0 18 17" fill="none" xmlns="http://www.w3.org/2000/svg">
<path d="M8.88224 6.24153C9.05157 6.30426 9.2177 6.15074 9.16156 5.9874C8.77631 4.86617 7.38145 4.4479 6.08476 5.44265C5.40268 5.96597 5.14637 6.07716 5.13991 6.07997C5.58957 6.50457 6.10327 7.92939 7.22436 8.08696C8.45933 8.29843 9.55235 7.15091 8.6581 6.62581C8.06998 6.28051 7.37755 6.07993 6.63532 6.07993C7.41345 5.91428 8.19025 5.98531 8.88224 6.24153Z" fill="#FFEBB9"/>
<path d="M14.4744 5.44257C12.2361 3.72543 10.8086 6.43337 11.6959 6.16495C12.3261 5.9743 13.0151 5.93277 13.7061 6.07988C12.5352 6.07988 11.4559 6.58666 10.7363 7.41155C10.7954 6.11523 10.8848 5.3038 10.9884 4.7002C11.5865 4.68078 12.3837 4.22463 12.8215 3.42644C13.5762 2.15082 13.2262 0.842885 13.1136 0.0175781C12.5238 0.559933 9.94777 -0.0755639 8.92655 1.57717C8.47545 2.30725 8.60655 3.19567 9.08111 3.8458C9.23133 4.05162 9.59052 3.95286 9.60075 3.70309C9.64533 2.61656 10.2179 1.79566 11.2853 1.34098C10.8063 1.9271 10.4918 2.58331 10.3294 3.26154C10.0768 4.31807 9.81306 5.01114 9.7162 8.37862C9.70636 8.72013 9.99929 9.00282 10.361 8.99853C10.6229 8.99542 10.8472 8.83849 10.9479 8.61019C11.101 8.26295 11.3503 7.90358 11.756 7.57433C12.1414 7.97674 12.728 8.19086 13.335 8.08691C14.4513 7.93002 14.9723 6.50209 15.4194 6.07984C15.4128 6.07711 15.1565 5.96592 14.4744 5.44257Z" fill="#FFEBB9"/>
<path d="M17.7649 9.63842C17.0651 9.19004 16.3035 9.50955 15.9538 9.70027L11.5647 12.7342L8.99474 12.7347L8.35226 12.128H10.7124C11.4222 12.128 12.2172 11.6913 12.2172 10.9141C12.2172 10.089 11.4222 9.70027 10.7124 9.70027H9.82796C9.17094 9.70027 8.40314 9.7556 7.86176 9.4819C7.34742 9.23471 6.75513 9.09405 6.12289 9.09405C5.06123 9.09405 4.11104 9.49377 3.45992 10.1242L0 13.341L3.85489 16.9817L5.13985 15.1614H11.2119C11.8595 15.1614 12.4846 14.937 12.9687 14.5308L17.8088 10.4701C18.0779 10.2444 18.0627 9.82929 17.7649 9.63842Z" fill="#FFEBB9"/>
</svg>
