<svg width="39" height="92" viewBox="0 0 39 92" fill="none" xmlns="http://www.w3.org/2000/svg">
<path d="M38.1533 48.1146C38.0832 48.0568 37.9814 48.0384 37.9021 48.0651C37.8053 48.0948 37.7165 48.1207 37.6328 48.1451L37.5919 48.1571C37.3854 48.2174 37.2071 48.2691 37.0304 48.34C34.2393 49.4478 32.0419 51.3458 30.3125 54.1421C29.8854 54.833 29.5546 55.5512 29.2912 56.2675C29.7232 53.8583 29.8234 52.9198 29.8999 50.2241C29.9035 50.111 29.9035 49.9959 29.9035 49.8817C29.9035 49.5698 29.9035 49.2752 29.9717 49.0065C30.0535 48.6879 30.2179 48.3703 30.3771 48.0629C30.4219 47.9759 30.4666 47.8889 30.5036 47.8124C30.5164 47.7974 30.5579 47.7721 30.574 47.7696C31.3722 47.6479 32.0781 47.3094 32.7325 46.7349C33.3919 46.1532 33.9341 45.4411 34.3445 44.6179C35.8174 41.6673 36.5544 38.4061 36.5358 34.9258C36.5341 34.59 36.4946 34.2632 36.4512 33.9077C36.4314 33.7485 36.4114 33.5856 36.3947 33.4169C36.3852 33.3243 36.3282 33.2421 36.2456 33.202C36.1641 33.1626 36.0656 33.1654 35.9832 33.2151C35.9334 33.2462 35.8908 33.2715 35.8522 33.294C35.7773 33.3385 35.7203 33.3733 35.6663 33.4122C34.4099 34.3118 33.3017 35.4319 32.3722 36.7404C30.8553 38.8791 29.9731 41.2974 29.7355 43.9578C29.7118 43.6612 29.6879 43.3647 29.664 43.0681L29.6556 42.9606C29.5624 41.798 29.4662 40.5956 29.3877 39.4133C29.3679 39.114 29.3104 38.8227 29.2547 38.5409C29.1473 37.9992 29.0458 37.4875 29.2082 36.9514C29.2452 36.8302 29.2764 36.7082 29.3076 36.5864C29.3844 36.2849 29.7552 35.8205 30.3247 35.3127L30.3462 35.2935C30.5562 35.1156 31.6352 34.1295 32.2473 32.179C32.8685 30.1973 32.8215 28.1267 32.7873 26.6147L32.7865 26.5744C32.7408 24.4961 32.516 22.9299 32.0575 21.4955C31.9982 21.3121 31.9279 21.1311 31.8533 20.941C31.8146 20.8421 31.7751 20.7398 31.7345 20.6328C31.7011 20.5422 31.621 20.4763 31.5272 20.4607L31.4813 20.4566C31.4001 20.4566 31.3241 20.493 31.2727 20.5558L30.8272 21.098C28.6916 23.7001 27.6424 26.7518 27.7081 30.1687C27.7195 30.7704 27.7646 31.3877 27.8444 32.025C27.3016 30.1537 26.665 28.3321 25.9411 26.5797C25.9261 26.5414 25.9163 26.4938 25.9152 26.4535L25.9102 26.214C25.9027 25.8682 25.8949 25.5105 25.9097 25.1587C25.9119 25.1003 25.9497 24.9955 26.0285 24.8924C26.1403 24.7448 26.2644 24.6006 26.3929 24.4505C26.6119 24.1959 26.8381 23.933 27.0173 23.6328C27.5943 22.6673 27.8653 21.5266 27.8697 20.0427C27.8775 18.2959 27.6079 16.4577 27.0203 14.2573C26.6992 13.0569 26.2146 11.4974 25.312 10.0835C25.2508 9.98849 25.1824 9.899 25.1095 9.80422C25.0767 9.76225 25.0422 9.71751 25.0071 9.66943C24.9559 9.60078 24.8852 9.56075 24.7712 9.56075C24.6802 9.56742 24.599 9.61912 24.5536 9.69944C23.4207 11.742 22.8565 13.924 22.8297 16.3704C22.8069 18.4102 23.1258 20.1653 23.5256 21.5525C22.5081 19.6956 21.3774 17.9015 20.1519 16.1997L20.1238 16.1611C20.0959 16.1242 20.0843 16.1061 20.0862 16.1189C20.0091 15.5683 19.9557 15.1278 19.9187 14.7442C19.9196 14.7384 19.9268 14.7061 19.9841 14.6105C20.0651 14.4727 20.1538 14.3376 20.2481 14.1947C20.4373 13.9074 20.6326 13.61 20.7578 13.277C21.1357 12.272 21.2205 11.1322 21.0166 9.79366C20.5689 6.83117 19.2616 4.16356 17.0208 1.63798C16.7901 1.37867 16.5353 1.14938 16.2657 0.907018L16.1911 0.839481C16.0857 0.744149 15.9774 0.646595 15.8681 0.543482C15.7985 0.477334 15.6989 0.452598 15.6024 0.480947C15.5111 0.509852 15.4407 0.585449 15.419 0.679391L15.3701 0.893956C15.3367 1.03626 15.3108 1.14854 15.2916 1.26138C14.99 3.05961 15.012 4.98569 15.3592 7.15024C15.7037 9.29699 16.39 11.1486 17.4431 12.757C15.8639 10.8982 14.3279 9.33729 12.7225 7.95402C12.7153 7.94457 12.7047 7.91594 12.7039 7.90872C12.8294 6.82895 12.5628 5.81171 11.8884 4.79892C11.0028 3.4679 9.77226 2.45344 8.23092 1.78418C7.30861 1.38451 6.35292 1.0307 5.41726 0.684116C4.96905 0.517912 4.52083 0.352264 4.05926 0.174664C3.59547 -0.00960549 3.39709 -0.0424017 3.28942 0.0570984C3.15087 0.18606 3.18426 0.296122 3.24464 0.496234L3.2641 0.561547C3.82973 2.46483 4.58037 3.97012 5.55943 5.16329C7.35674 7.35591 9.45871 8.46986 11.9822 8.56825C12.0707 8.57353 12.1408 8.59799 12.1694 8.62023C12.5247 8.88593 12.7862 9.09855 13.0174 9.30922C13.7486 9.97682 14.4686 10.6881 15.1731 11.4371C14.1253 10.7867 12.8447 10.4932 11.4024 10.566C10.613 10.6058 9.82957 10.7214 9.07197 10.8331L9.04304 10.8376C8.81907 10.8704 8.59622 10.9029 8.37392 10.9343C7.88703 11.0002 7.39625 11.0863 6.96278 11.1619C6.78722 11.1933 6.36795 11.2887 6.2714 11.4918C6.23802 11.5613 6.2408 11.6375 6.27864 11.7067C6.31203 11.767 6.34875 11.8237 6.38881 11.8754C7.63997 13.4971 9.06724 14.5652 10.7522 15.1403C12.8065 15.8451 14.6934 15.787 16.3889 14.9579C16.6482 14.8154 16.9609 14.7431 17.3182 14.7431C17.5878 14.7431 17.79 14.7856 17.8571 14.8009C17.9575 14.8176 18.0939 14.8737 18.1217 14.9099C19.1761 16.2948 20.1769 17.774 21.1115 19.3279C20.3219 18.5608 19.2922 18.0436 17.8894 17.7067C16.6599 17.414 15.4029 17.3512 14.1876 17.2901L13.7806 17.2695C13.3994 17.2501 13.0183 17.2259 12.6257 17.2011L11.9674 17.1606C11.8823 17.1606 11.8013 17.2017 11.7518 17.2701C11.697 17.3437 11.6839 17.4393 11.7162 17.5252C11.7426 17.5969 11.7908 17.7234 11.8155 17.7656C13.0973 19.9074 14.6025 21.3888 16.4165 22.2948C18.1898 23.1798 19.7921 23.4138 21.4083 23.0277C21.5953 22.9827 21.812 22.9588 22.036 22.9588C22.7235 22.9588 23.2028 23.1684 23.3036 23.3624C24.1928 25.1948 24.9862 27.0989 25.6707 29.0411C24.9529 28.0525 23.949 27.2495 22.6781 26.6489C21.4156 26.0536 20.1009 25.5094 18.8075 24.9738C18.2516 24.7443 17.6935 24.5138 17.1379 24.2782C17.0553 24.242 16.9576 24.2495 16.8805 24.3004C16.8049 24.3507 16.7598 24.4346 16.7598 24.525C16.7598 24.6984 18.6044 29.8126 21.2834 31.8279C22.3762 32.6501 23.7223 33.4958 25.4197 33.5356C25.9277 33.5458 26.453 33.6176 26.8498 34.0681C26.9104 34.1398 26.9908 34.1957 27.0785 34.2254C27.214 34.2699 27.2512 34.3527 27.318 34.6351C27.8678 36.9408 28.2681 39.3174 28.5146 41.7307C28.4401 41.4858 28.3536 41.2385 28.2542 40.9881C27.6547 39.4692 26.6456 38.1401 25.0786 36.8052C24.2709 36.1142 23.4251 35.4452 22.6072 34.7979L22.5682 34.7674C22.1957 34.4725 21.824 34.1787 21.4534 33.8813C21.3769 33.8199 21.3023 33.7565 21.2158 33.6826L20.9846 33.4847C20.9036 33.4163 20.7832 33.4022 20.6886 33.4494C20.5915 33.4986 20.5333 33.6003 20.5408 33.709C20.5522 33.8721 20.5614 34.0264 20.57 34.1745L20.5745 34.2437C20.5928 34.5486 20.6101 34.8363 20.641 35.1203C20.9309 37.8861 21.7541 40.1951 23.1578 42.1793C24.0267 43.4058 25.2731 44.905 27.2167 45.614C27.6897 45.7874 28.0328 46.0501 28.4003 46.5214C28.747 46.9628 28.8115 47.3661 28.8037 47.8736C28.7706 49.9995 28.619 52.1085 28.3516 54.1738C28.289 53.599 28.1566 53.0073 27.9532 52.3925C27.5322 51.1196 26.8762 49.8819 25.9472 48.609C25.1454 47.5067 24.311 46.4005 23.5042 45.3302L23.4505 45.2588C23.1305 44.8349 22.8108 44.4105 22.4995 43.9953C22.4411 43.91 22.3568 43.8794 22.3081 43.8625C22.2391 43.8288 22.1567 43.8255 22.0836 43.8566C22.0118 43.8872 21.9567 43.9475 21.9325 44.0214L21.923 44.0503C21.9097 44.0893 21.8991 44.1237 21.8935 44.1582C21.3371 47.4728 21.6785 50.4425 22.9369 53.238C23.5515 54.6049 24.3758 56.1524 25.8293 57.2658C26.4928 57.7741 27.0167 58.4873 27.3044 59.2736C27.3653 59.4428 27.3631 59.5162 27.3561 59.5446C26.741 62.0899 25.9375 64.5449 24.9606 66.8684C25.2122 65.6438 25.1949 64.3575 24.9078 63.0249C24.5002 61.136 23.7996 59.3055 23.1747 57.738L22.9875 57.2686C22.6945 56.534 22.3996 55.7936 22.095 55.0262C22.0563 54.9281 21.9631 54.8611 21.8387 54.855C21.7408 54.855 21.6506 54.9109 21.6039 55.0015L21.5057 55.186C21.4626 55.2669 21.4222 55.3422 21.3877 55.42C20.1307 58.2533 19.7062 61.1577 20.1265 64.0527C20.427 66.1227 20.9362 67.6049 21.7775 68.859C22.2129 69.5071 22.6266 70.2292 22.7018 71.1172C22.7196 71.3273 22.7112 71.4721 22.6175 71.6369C21.5563 73.4932 20.3666 75.245 19.0637 76.8726C19.0687 76.8637 19.0735 76.8548 19.0785 76.8459C20.0158 75.1347 20.0442 73.2845 19.9485 71.7C19.8659 70.3417 19.7101 68.9854 19.5601 67.6741L19.5515 67.5982C19.4911 67.073 19.431 66.5479 19.3762 66.0218C19.3445 65.7236 19.3091 65.4254 19.2727 65.1227L19.2246 64.713C19.214 64.6224 19.1586 64.544 19.079 64.5046C18.931 64.4273 18.6915 64.5465 18.4327 64.8523C16.6546 66.9532 15.5512 69.3273 15.1528 71.909C14.7396 74.5858 14.9636 76.8765 15.8383 78.9121C15.8617 78.9663 15.8611 79.0769 15.8609 79.1139L15.8138 80.2851C15.8069 80.3693 15.7624 80.4643 15.7256 80.4996C13.95 82.2078 11.9952 83.6928 9.89746 84.9288C10.8904 84.0322 11.6043 82.8624 12.067 81.3799C12.5798 79.7367 12.843 78.0266 13.0981 76.3684L13.1204 76.2209C13.2108 75.6383 13.3051 75.0569 13.4014 74.4626L13.5102 73.7909C13.5257 73.6931 13.4871 73.5952 13.4111 73.5366C13.3357 73.4765 13.2267 73.4621 13.1398 73.4993L13.045 73.5385C12.9437 73.5799 12.8555 73.6169 12.7723 73.6594C8.80656 75.638 6.196 80.2528 6.56493 84.632C6.6228 85.3179 6.55991 85.9622 6.37239 86.6003C6.35486 86.6584 6.29867 86.7215 6.27585 86.732C4.3923 87.5255 2.60139 88.1045 0.799347 88.5019C0.7067 88.5233 0.633245 88.5894 0.603197 88.6787C0.57287 88.7684 0.591238 88.866 0.653003 88.9394C0.848871 89.1712 1.01942 89.4205 1.15964 89.6814C1.21723 89.7882 1.35439 89.8429 1.45706 89.8162C2.92523 89.4816 4.35501 89.0483 5.708 88.5275C5.81734 88.4836 5.90081 88.4627 5.97899 88.4755C6.28002 88.5155 6.59803 88.5772 6.9511 88.6648C7.02399 88.6826 7.08437 88.7162 7.08548 88.7131C7.85671 90.249 9.18215 91.2273 11.1389 91.7034C11.5646 91.8054 12.0036 91.8807 12.4437 91.9269C12.9045 91.9755 13.4183 92.0002 13.9706 92.0002C14.7357 92.0002 15.2813 91.953 15.288 91.9524C16.984 91.7629 18.4325 91.3816 19.7153 90.7865C20.2417 90.5428 20.8416 90.2145 21.3026 89.6284C21.3908 89.5161 21.376 89.354 21.2689 89.2598C19.9657 88.1111 18.6389 87.2765 17.2119 86.7084C15.0977 85.869 13.1718 85.6417 11.2841 86.0044C11.002 86.0591 10.7266 86.1281 10.4589 86.2073C12.2248 85.1528 13.9155 83.9135 15.5122 82.5016C15.5428 82.4738 15.5932 82.4493 15.6324 82.4424C15.8937 82.399 16.2406 82.3457 16.5956 82.3201C16.6285 82.3201 16.6702 82.3359 16.6749 82.3376C17.637 83.4132 18.8765 83.936 20.4643 83.936C20.5453 83.936 20.6265 83.9343 20.7075 83.9316C22.4338 83.876 24.1694 83.4021 25.8668 82.5224C27.1004 81.8796 28.3864 81.1311 29.4292 80.0149C29.6604 79.7667 29.8668 79.486 30.049 79.2384L30.0668 79.2142C30.1475 79.105 30.229 78.9949 30.3128 78.8862C30.3584 78.8276 30.3776 78.752 30.3656 78.6758C30.3528 78.6025 30.3103 78.5372 30.2377 78.4899C30.2193 78.4799 29.7778 78.2434 29.3746 78.0875C26.6753 77.0455 23.9501 76.9388 21.3504 77.7756C20.4994 78.0488 19.6984 78.4591 18.9185 79.026C20.3608 77.3512 21.6963 75.5152 22.9088 73.5396C22.9218 73.5188 22.9563 73.4624 22.9675 73.4521C23.0735 73.3845 23.182 73.3206 23.2902 73.2575C23.4841 73.1439 23.685 73.0263 23.8736 72.8862C24.0328 72.7675 24.0776 72.7645 24.2384 72.8679C24.466 73.0155 24.7306 73.0922 24.9612 73.1525C26.3106 73.4977 27.6708 73.3256 29.1754 72.6199C30.5498 71.9763 31.6065 70.9587 32.5441 69.9554C33.908 68.4918 34.7991 67.1713 35.3489 65.7995C35.4643 65.5115 35.5467 65.2139 35.6324 64.9026C35.6677 64.7719 35.7039 64.6413 35.7423 64.5129C35.7843 64.3751 35.7108 64.2291 35.5745 64.1811L35.4616 64.1724C34.9054 64.1724 29.9441 64.2539 27.0423 67.0666C26.411 67.6786 25.8451 68.3289 25.3285 69.041C26.4764 66.6124 27.4499 64.0529 28.2345 61.3962L28.2459 61.3573C28.2553 61.3247 28.2695 61.2755 28.279 61.2622L29.038 60.2211C29.0664 60.1794 29.0697 60.1794 29.1142 60.1794C29.134 60.1794 29.1557 60.1808 29.1804 60.1821L29.3426 60.1919C29.9074 60.2269 30.2399 60.2219 30.5134 60.1791C31.594 60.0087 32.5694 59.4651 33.4951 58.5168C35.6599 56.2989 37.1501 53.5318 38.0504 50.0581C38.1469 49.686 38.1739 49.3102 38.2029 48.9117C38.2157 48.731 38.2298 48.5448 38.2504 48.3525C38.2591 48.2602 38.2229 48.1721 38.1533 48.1146Z" fill="#1C1D28"/>
</svg>
