<svg width="20" height="19" viewBox="0 0 20 19" fill="none" xmlns="http://www.w3.org/2000/svg">
<path d="M17.8737 13.8049V14.7838C17.8737 15.4316 17.4432 15.9857 16.8399 16.2019C16.8402 16.2266 16.8408 16.2511 16.8408 16.2757V18.945C18.0952 18.6977 19.0408 17.6396 19.0408 16.3757V13.8048L17.8737 13.8049Z" fill="#FFEBB9"/>
<path d="M9.76751 6.44835V5.42479C9.76751 4.53881 9.42189 3.68007 8.794 3.00645C8.20623 2.37588 7.43306 1.97522 6.59765 1.86403C6.41271 1.694 6.07503 1.38379 5.73644 1.07415C5.44362 0.806272 5.20955 0.592893 5.04033 0.439961C4.94329 0.352262 4.86196 0.279202 4.80428 0.228322C4.67809 0.116994 4.44341 -0.0904417 4.09566 0.0436449L3.7235 0.187444L3.77233 2.38559L3.68062 2.44851C3.08217 2.85932 2.68132 3.49163 2.57833 4.18569L0.981953 5.19735L0.976613 5.89243C0.972798 6.42254 1.18703 6.92149 1.5801 7.29766C1.97332 7.67383 2.497 7.88097 3.05501 7.88097H4.27068V8.90017C4.27068 9.40651 4.35628 9.90677 4.52474 10.3872L5.42592 12.9554V16.8565C4.48049 17.0676 3.77309 17.8751 3.77095 18.8364L3.76897 18.9983L7.24843 18.9987C7.34365 18.133 8.01214 17.4262 8.88555 17.2289V16.5486C8.88555 14.6874 10.4793 13.1733 12.4384 13.1733H12.5243V14.282H12.4384C11.1229 14.282 10.0527 15.2988 10.0527 16.5486V18.2826H9.38115C8.91942 18.2826 8.53109 18.5889 8.42946 18.9989L15.7081 19V16.2758C15.7081 13.8557 14.7532 11.5464 13.0193 9.7734L9.76751 6.44835Z" fill="#FFEBB9"/>
</svg>
